<?xml version="1.0" encoding="UTF-8" standalone="no"?>
<svg
   xmlns:dc="http://purl.org/dc/elements/1.1/"
   xmlns:cc="http://creativecommons.org/ns#"
   xmlns:rdf="http://www.w3.org/1999/02/22-rdf-syntax-ns#"
   xmlns:svg="http://www.w3.org/2000/svg"
   xmlns="http://www.w3.org/2000/svg"
   xmlns:sodipodi="http://sodipodi.sourceforge.net/DTD/sodipodi-0.dtd"
   xmlns:inkscape="http://www.inkscape.org/namespaces/inkscape"
   width="200"
   height="200"
   viewBox="0 0 52.916665 52.916668"
   version="1.1"
   id="svg8"
   inkscape:version="1.0.1 (c497b03c, 2020-09-10)"
   sodipodi:docname="icons.svg"
   inkscape:export-filename="/Users/awesomeinc/ainc/lightbot/right.png"
   inkscape:export-xdpi="96"
   inkscape:export-ydpi="96">
  <defs
     id="defs2" />
  <sodipodi:namedview
     id="base"
     pagecolor="#ffffff"
     bordercolor="#666666"
     borderopacity="1.0"
     inkscape:pageopacity="0.0"
     inkscape:pageshadow="2"
     inkscape:zoom="0.95297345"
     inkscape:cx="-81.125681"
     inkscape:cy="12.240774"
     inkscape:document-units="mm"
     inkscape:current-layer="layer1"
     inkscape:document-rotation="0"
     showgrid="false"
     units="px"
     inkscape:window-width="1252"
     inkscape:window-height="755"
     inkscape:window-x="0"
     inkscape:window-y="23"
     inkscape:window-maximized="0" />
  <metadata
     id="metadata5">
    <rdf:RDF>
      <cc:Work
         rdf:about="">
        <dc:format>image/svg+xml</dc:format>
        <dc:type
           rdf:resource="http://purl.org/dc/dcmitype/StillImage" />
        <dc:title></dc:title>
      </cc:Work>
    </rdf:RDF>
  </metadata>
  <g
     inkscape:label="Layer 1"
     inkscape:groupmode="layer"
     id="layer1">
    <g
       id="g134"
       transform="matrix(0.10189652,0,0,0.10189652,-98.744575,-8.5116903)">
      <g
         id="g14">
	<g
   id="g12">
		<path
   d="m 255.985,59.99 c -8.284,0 -15,6.716 -15,15 0,8.284 6.716,15 15,15 49.634,0 90.015,40.374 90.015,90 0,8.284 6.716,15 15,15 8.284,0 15,-6.716 15,-15 0,-66.168 -53.838,-120 -120.015,-120 z"
   id="path10" />

	</g>

</g>
      <g
         id="g20">
	<g
   id="g18">
		<path
   d="M 217.335,4.03 C 149.565,18.191 94.615,72.615 80.156,140.806 67.947,198.388 82.992,256.198 121.433,299.413 140.224,320.536 151,348.419 151,375.99 v 30 c 0,19.96 13.067,36.917 31.093,42.79 5.928,35.025 36.328,63.209 73.907,63.209 37.569,0 67.977,-28.175 73.907,-63.209 C 347.933,442.907 361,425.95 361,405.989 v -30 c 0,-27.625 10.812,-55.173 30.442,-77.569 C 420.176,265.64 436,223.58 436,179.99 436,66.425 332.051,-19.936 217.335,4.03 Z M 256,481.99 c -19.282,0 -36.188,-13.268 -42.431,-31.1 h 84.861 c -6.242,17.832 -23.148,31.1 -42.43,31.1 z m 75,-76 c 0,8.271 -6.729,15 -15,15 H 196 c -8.271,0 -15,-6.729 -15,-15 v -15 h 150 z m 37.882,-127.343 c -20.92,23.867 -33.791,52.647 -37.057,82.343 H 180.178 C 176.916,331.278 164.078,302.215 143.85,279.474 111.812,243.458 99.293,195.183 109.504,147.029 121.423,90.815 167.223,45.15 223.472,33.397 319.496,13.33 406,85.442 406,179.99 c 0,36.312 -13.182,71.349 -37.118,98.657 z"
   id="path16" />

	</g>

</g>
      <g
         id="g26">
	<g
   id="g24">
		<path
   d="M 45,179.99 H 15 c -8.284,0 -15,6.716 -15,15 0,8.284 6.716,15 15,15 h 30 c 8.284,0 15,-6.716 15,-15 0,-8.284 -6.716,-15 -15,-15 z"
   id="path22" />

	</g>

</g>
      <g
         id="g32">
	<g
   id="g30">
		<path
   d="M 51.213,104.99 30,83.777 c -5.857,-5.858 -15.355,-5.858 -21.213,0 -5.858,5.858 -5.858,15.355 0,21.213 L 30,126.203 c 5.857,5.858 15.355,5.859 21.213,0 5.858,-5.858 5.858,-15.355 0,-21.213 z"
   id="path28" />

	</g>

</g>
      <g
         id="g38">
	<g
   id="g36">
		<path
   d="m 51.213,263.777 c -5.858,-5.858 -15.356,-5.858 -21.213,0 L 8.787,284.99 c -5.858,5.858 -5.858,15.355 0,21.213 5.857,5.858 15.355,5.859 21.213,0 L 51.213,284.99 c 5.858,-5.858 5.858,-15.355 0,-21.213 z"
   id="path34" />

	</g>

</g>
      <g
         id="g44">
	<g
   id="g42">
		<path
   d="m 497,179.99 h -30 c -8.284,0 -15,6.716 -15,15 0,8.284 6.716,15 15,15 h 30 c 8.284,0 15,-6.716 15,-15 0,-8.284 -6.716,-15 -15,-15 z"
   id="path40" />

	</g>

</g>
      <g
         id="g50">
	<g
   id="g48">
		<path
   d="m 503.213,83.777 c -5.857,-5.858 -15.355,-5.858 -21.213,0 l -21.213,21.213 c -5.858,5.858 -5.858,15.355 0,21.213 5.857,5.857 15.355,5.858 21.213,0 l 21.213,-21.213 c 5.858,-5.858 5.858,-15.355 0,-21.213 z"
   id="path46" />

	</g>

</g>
      <g
         id="g56">
	<g
   id="g54">
		<path
   d="M 503.213,284.99 482,263.777 c -5.857,-5.858 -15.355,-5.858 -21.213,0 -5.858,5.858 -5.858,15.355 0,21.213 L 482,306.203 c 5.857,5.857 15.355,5.858 21.213,0 5.858,-5.858 5.858,-15.355 0,-21.213 z"
   id="path52" />

	</g>

</g>
      <g
         id="g58">
</g>
      <g
         id="g60">
</g>
      <g
         id="g62">
</g>
      <g
         id="g64">
</g>
      <g
         id="g66">
</g>
      <g
         id="g68">
</g>
      <g
         id="g70">
</g>
      <g
         id="g72">
</g>
      <g
         id="g74">
</g>
      <g
         id="g76">
</g>
      <g
         id="g78">
</g>
      <g
         id="g80">
</g>
      <g
         id="g82">
</g>
      <g
         id="g84">
</g>
      <g
         id="g86">
</g>
    </g>
    <g
       id="049---Spring-Folder"
       fill="#000000"
       fill-rule="nonzero"
       transform="matrix(2.3766082,0,0,2.3766082,-115.56512,-104.93706)">
      <path
         id="path175"
         d="m 42.626063,23.728081 c 0.336519,-0.290179 0.536838,-0.707508 0.552756,-1.151575 0,-1.889734 -3.765651,-2.878937 -7.485236,-2.878937 -3.719589,0 -7.485237,0.989203 -7.485237,2.878937 0.01592,0.444067 0.216235,0.861396 0.552758,1.151575 -0.348684,0.279399 -0.551939,0.701779 -0.552723,1.148594 -8.07e-4,0.446815 0.200992,0.869904 0.548689,1.150525 -0.347147,0.281522 -0.54877,0.704623 -0.54877,1.151574 0,0.446953 0.201623,0.870054 0.54877,1.151575 -0.347147,0.281522 -0.54877,0.704623 -0.54877,1.151576 0,0.44695 0.201623,0.870053 0.54877,1.151575 -0.347147,0.281521 -0.54877,0.704623 -0.54877,1.151574 0,0.44695 0.201623,0.870053 0.54877,1.151575 -0.347147,0.281522 -0.54877,0.704622 -0.54877,1.151574 0,0.446952 0.201623,0.870052 0.54877,1.151575 -0.33512,0.292536 -0.53383,0.711014 -0.548724,1.155606 0,1.889733 3.765648,2.878938 7.485237,2.878938 2.245571,0 4.503233,-0.363323 5.943276,-1.065208 0.277531,0.202101 0.390384,0.379444 0.390384,0.489419 0,0.586728 -2.235784,1.727363 -6.33366,1.727363 -0.317999,0 -0.575788,0.257788 -0.575788,0.575787 0,0.317999 0.257789,0.575787 0.575788,0.575787 3.719585,0 7.485236,-0.989201 7.485236,-2.878937 -0.01491,-0.444592 -0.213603,-0.86307 -0.548726,-1.155603 0.347147,-0.281524 0.548772,-0.704626 0.548772,-1.151576 0,-0.446953 -0.201625,-0.870054 -0.548772,-1.151576 0.347147,-0.281523 0.548772,-0.704623 0.548772,-1.151575 0,-0.446952 -0.201625,-0.870052 -0.548772,-1.151574 0.347147,-0.281522 0.548772,-0.704625 0.548772,-1.151575 0,-0.446951 -0.201625,-0.870053 -0.548772,-1.151574 0.347147,-0.281522 0.548772,-0.704625 0.548772,-1.151575 0,-0.446953 -0.201625,-0.870054 -0.548772,-1.151576 0.347147,-0.281521 0.548772,-0.704622 0.548772,-1.151575 0,-0.446951 -0.201625,-0.870052 -0.548772,-1.151574 0.347701,-0.280621 0.549474,-0.70371 0.54869,-1.150525 C 43.178,24.42986 42.974744,24.00748 42.626063,23.728081 Z m -0.59882,3.454726 c 0,0.586725 -2.235784,1.72736 -6.33366,1.72736 -4.097879,0 -6.333662,-1.140635 -6.333662,-1.72736 0,-0.109979 0.115158,-0.287895 0.390384,-0.489421 1.440043,0.701885 3.697706,1.065206 5.943278,1.065206 2.245571,0 4.503233,-0.363321 5.943276,-1.065206 0.275227,0.201526 0.390384,0.379444 0.390384,0.489421 z m 0,2.303149 c 0,0.586725 -2.235784,1.727362 -6.33366,1.727362 -4.097879,0 -6.333662,-1.140637 -6.333662,-1.727362 0,-0.109979 0.115158,-0.287894 0.390384,-0.489421 1.440043,0.701885 3.697706,1.065206 5.943278,1.065206 2.245571,0 4.503233,-0.363321 5.943276,-1.065206 0.275227,0.201527 0.390384,0.379442 0.390384,0.489421 z m 0,2.303148 c 0,0.586729 -2.235784,1.727363 -6.33366,1.727363 -4.097879,0 -6.333662,-1.140634 -6.333662,-1.727363 0,-0.109976 0.115158,-0.287894 0.390384,-0.489419 1.440043,0.701884 3.697706,1.065207 5.943278,1.065207 2.245571,0 4.503233,-0.363323 5.943276,-1.065207 0.275227,0.201525 0.390384,0.379444 0.390384,0.489419 z m 0,2.30315 c 0,0.586727 -2.235784,1.727362 -6.33366,1.727362 -4.097879,0 -6.333662,-1.140635 -6.333662,-1.727362 0,-0.109978 0.115158,-0.287892 0.390384,-0.489419 1.440043,0.701885 3.697706,1.065206 5.943278,1.065206 2.245571,0 4.503233,-0.363321 5.943276,-1.065206 0.275227,0.201527 0.390384,0.379442 0.390384,0.489419 z M 29.742245,24.386781 c 1.440042,0.704187 3.701159,1.068662 5.951338,1.068662 2.250177,0 4.511293,-0.364475 5.951339,-1.068662 0.251041,0.180222 0.382321,0.352383 0.382321,0.492875 0,0.586728 -2.235784,1.727362 -6.33366,1.727362 -4.097879,0 -6.333662,-1.140634 -6.333662,-1.727362 0,-0.140492 0.131279,-0.312653 0.382324,-0.492875 z m 1.469409,-0.6587 c 1.458073,-0.408631 2.967913,-0.602599 4.481929,-0.575788 1.514013,-0.02681 3.023856,0.167157 4.481929,0.575788 -1.458073,0.408631 -2.967916,0.602597 -4.481929,0.575788 -1.514016,0.02681 -3.023856,-0.167157 -4.481929,-0.575788 z m 4.481929,-2.878937 c 4.097876,0 6.33366,1.140636 6.33366,1.727362 0,0.140492 -0.13128,0.312654 -0.382321,0.492874 -1.440046,-0.704188 -3.701162,-1.068662 -5.951339,-1.068662 -2.250179,0 -4.511296,0.364474 -5.951338,1.068662 -0.251045,-0.18022 -0.382324,-0.352382 -0.382324,-0.492874 0,-0.586726 2.235783,-1.727362 6.333662,-1.727362 z m -6.333662,15.54626 c 0,-0.109979 0.115158,-0.287893 0.390384,-0.48942 1.440043,0.701885 3.697706,1.065206 5.943278,1.065206 2.245571,0 4.503233,-0.363321 5.943276,-1.065206 0.277531,0.202101 0.390384,0.379442 0.390384,0.48942 0,0.586727 -2.235784,1.727363 -6.33366,1.727363 -4.097879,0 -6.333662,-1.140636 -6.333662,-1.727363 z"
         style="stroke-width:0.575788" />
    </g>
    <g
       id="g253"
       transform="matrix(0,-0.10540056,0.10540056,0,-101.713,-8.6224172)">
      <g
         id="g197">
	<path
   d="M 490.498,239.278 380.866,139.349 c -3.046,-2.474 -6.376,-2.95 -9.993,-1.427 -3.613,1.525 -5.427,4.283 -5.427,8.282 v 63.954 H 9.136 c -2.666,0 -4.856,0.855 -6.567,2.568 C 0.859,214.438 0,216.628 0,219.292 v 54.816 c 0,2.663 0.855,4.853 2.568,6.563 1.715,1.712 3.905,2.567 6.567,2.567 h 356.313 v 63.953 c 0,3.812 1.817,6.57 5.428,8.278 3.62,1.529 6.95,0.951 9.996,-1.708 L 490.504,252.684 c 1.903,-1.902 2.852,-4.182 2.852,-6.849 0,-2.468 -0.955,-4.654 -2.858,-6.557 z"
   id="path195" />

</g>
      <g
         id="g199">
</g>
      <g
         id="g201">
</g>
      <g
         id="g203">
</g>
      <g
         id="g205">
</g>
      <g
         id="g207">
</g>
      <g
         id="g209">
</g>
      <g
         id="g211">
</g>
      <g
         id="g213">
</g>
      <g
         id="g215">
</g>
      <g
         id="g217">
</g>
      <g
         id="g219">
</g>
      <g
         id="g221">
</g>
      <g
         id="g223">
</g>
      <g
         id="g225">
</g>
      <g
         id="g227">
</g>
    </g>
    <g
       id="g319"
       transform="matrix(-2.5548161,0,0,2.5548161,53.221358,-0.0254371)">
      <g
         id="g261">
	<g
   id="g259">
		<g
   id="g257">
			<path
   style="fill:#030104"
   d="m 0.952,11.102 c 0,-0.264 0.213,-0.474 0.475,-0.474 h 2.421 c 0.262,0 0.475,0.21 0.475,0.474 0,3.211 2.615,5.826 5.827,5.826 3.212,0 5.827,-2.615 5.827,-5.826 0,-3.214 -2.614,-5.826 -5.827,-5.826 -0.34,0 -0.68,0.028 -1.016,0.089 V 7.012 C 9.134,7.205 9.018,7.379 8.843,7.451 8.662,7.524 8.46,7.482 8.322,7.347 L 3.49,4.074 C 3.306,3.889 3.306,3.592 3.49,3.407 L 8.323,0.139 C 8.459,0.003 8.661,-0.037 8.842,0.035 9.017,0.109 9.133,0.281 9.133,0.473 V 1.96 c 0.34,-0.038 0.68,-0.057 1.016,-0.057 5.071,0 9.198,4.127 9.198,9.198 0,5.07 -4.127,9.197 -9.198,9.197 -5.07,0.001 -9.197,-4.126 -9.197,-9.196 z"
   id="path255" />

		</g>

	</g>

</g>
      <g
         id="g263">
</g>
      <g
         id="g265">
</g>
      <g
         id="g267">
</g>
      <g
         id="g269">
</g>
      <g
         id="g271">
</g>
      <g
         id="g273">
</g>
      <g
         id="g275">
</g>
      <g
         id="g277">
</g>
      <g
         id="g279">
</g>
      <g
         id="g281">
</g>
      <g
         id="g283">
</g>
      <g
         id="g285">
</g>
      <g
         id="g287">
</g>
      <g
         id="g289">
</g>
      <g
         id="g291">
</g>
    </g>
  </g>
</svg>
